<svg xmlns="http://www.w3.org/2000/svg" xml:space="preserve" width="512" height="512" style="enable-background:new 0 0 512 512"><g fill="none" stroke="#000" stroke-linecap="round" stroke-linejoin="round" stroke-width="15" clip-rule="evenodd"><path stroke-miterlimit="22.926" d="M38.321 436H173.44l5-25.469h27.618L232.809 436h187.395C465.192 436 502 398.638 502 352.973c0-39.889-18.914-59.087-58.211-59.087h-67.492L229.011 191.502V96.759c0-13.328-11.388-23.934-26.274-19.885l-79.106 22.942H53.376c-13.897 0-25.091 11.362-25.091 25.469V258.23L10.354 398.833C8.346 414.579 14.52 436 38.321 436z" data-original="#000000" style="fill-rule:evenodd;clip-rule:evenodd;stroke-width:15;stroke-linecap:round;stroke-linejoin:round;stroke-miterlimit:22.9256"/><path stroke-miterlimit="22.926" d="M17.799 350.289c38.437.758 53.198 36.256 85.395 33.388 29.817-2.656 46.182-17.461 85.301-17.461 65.197 0 242.684 50.912 313.155-20.338M123.631 99.815v68.408L83.63 208.226H33.285" data-original="#000000" style="fill-rule:evenodd;clip-rule:evenodd;stroke-width:15;stroke-linecap:round;stroke-linejoin:round;stroke-miterlimit:22.9256"/><path stroke-miterlimit="22.926" d="m173.472 363.993.165-15.757-13.185-13.185m-63.64-63.64L83.63 258.229H28.285m348.012 35.656c-16.628 62.054-61.656 10.947-81.764 82.519M264.59 200.499l-41.25 41.25m79.517-14.649-41.25 41.25m79.517-14.65-41.25 41.25M71.001 431v-9.145m50 9.145v-9.145M271 431v-9.145M321 431v-9.145M371 431v-9.145M420.999 431v-9.145" data-original="#000000" style="fill-rule:evenodd;clip-rule:evenodd;stroke-width:15;stroke-linecap:round;stroke-linejoin:round;stroke-miterlimit:22.9256"/><path stroke-miterlimit="2.613" d="M128.626 303.233h.008" data-original="#000000" style="fill-rule:evenodd;clip-rule:evenodd;stroke-width:15;stroke-linecap:round;stroke-linejoin:round;stroke-miterlimit:2.6131"/><path stroke-miterlimit="22.926" d="M189.003 121.759h.008m-.008 40h.008" data-original="#000000" style="fill-rule:evenodd;clip-rule:evenodd;stroke-width:15;stroke-linecap:round;stroke-linejoin:round;stroke-miterlimit:22.9256"/></g></svg>